<?xml version="1.0" encoding="UTF-8" standalone="no"?>
<!-- Created with Inkscape (http://www.inkscape.org/) -->

<svg
   width="210mm"
   height="297mm"
   viewBox="0 0 210 297"
   version="1.1"
   id="svg5"
   inkscape:version="1.1.2 (b8e25be833, 2022-02-05)"
   sodipodi:docname="desain-1.svg"
   xmlns:inkscape="http://www.inkscape.org/namespaces/inkscape"
   xmlns:sodipodi="http://sodipodi.sourceforge.net/DTD/sodipodi-0.dtd"
   xmlns="http://www.w3.org/2000/svg"
   xmlns:svg="http://www.w3.org/2000/svg">
  <sodipodi:namedview
     id="namedview7"
     pagecolor="#ffffff"
     bordercolor="#666666"
     borderopacity="1.0"
     inkscape:pageshadow="2"
     inkscape:pageopacity="0.0"
     inkscape:pagecheckerboard="0"
     inkscape:document-units="mm"
     showgrid="false"
     inkscape:zoom="0.74029882"
     inkscape:cx="396.46153"
     inkscape:cy="453.87078"
     inkscape:window-width="1920"
     inkscape:window-height="1017"
     inkscape:window-x="-8"
     inkscape:window-y="-8"
     inkscape:window-maximized="1"
     inkscape:current-layer="layer1" />
  <defs
     id="defs2">
    <rect
       x="279.24342"
       y="729.81713"
       width="236.76443"
       height="49.597858"
       id="rect33077" />
    <rect
       x="413.3466"
       y="852.35851"
       width="210.72572"
       height="63.487876"
       id="rect17599" />
    <rect
       x="286.37085"
       y="124.27414"
       width="285.02004"
       height="47.278205"
       id="rect3109" />
  </defs>
  <g
     inkscape:label="Layer 1"
     inkscape:groupmode="layer"
     id="layer1">
    <path
       style="fill:#000000;stroke-width:0.264583"
       id="path879"
       d="m 79.076551,13.361486 c 6.59879,-0.123524 13.198879,-0.170288 19.798331,-0.252174 15.994798,-0.113243 31.990548,-0.155738 47.985688,-0.105178 11.83462,0.04709 23.67076,0.0431 35.50436,0.222623 5.06297,0.101313 10.12417,0.27097 15.18622,0.40814 1.30195,0.03457 2.60414,0.05847 3.90636,0.08019 0,0 3.32568,-2.4134 3.32568,-2.4134 v 0 c -1.33709,0.0069 -2.67419,0.0082 -4.01129,0.0011 -5.18656,-0.02678 -10.37268,-0.102936 -15.55916,-0.140739 -12.00177,-0.05577 -24.00342,0.178319 -36.00542,0.13712 -15.89863,0.04982 -31.79787,0.0098 -47.69615,-0.105178 -6.368058,-0.08181 -12.736817,-0.127177 -19.104155,-0.252174 0,0 -3.330464,2.419723 -3.330464,2.419723 z" />
    <path
       style="fill:#000000;stroke-width:0.264583"
       id="path881"
       d="m 200.07865,16.38237 c 0.30691,5.638021 0.55742,11.278602 0.75973,16.921513 0.51964,17.510789 0.61891,35.030794 0.70829,52.547988 0.27318,23.386499 0.0109,46.774139 0.0624,70.160959 0.003,16.27887 0.54251,32.55014 0.73353,48.82656 0.0961,7.4239 0.0357,14.84785 0.15805,22.2714 0.0234,2.0762 0.0524,4.16099 0.36585,6.21722 0.32249,1.40079 0.6717,2.79261 0.8868,4.21466 0.35837,2.25413 0.59784,4.52285 0.78495,6.79676 0,0 3.55877,-1.85441 3.55877,-1.85441 v 0 c -0.23053,-2.28467 -0.48399,-4.56676 -0.7299,-6.8498 -0.199,-1.42888 -0.53615,-2.82549 -0.86474,-4.22905 -0.30214,-2.015 -0.43059,-4.04698 -0.52896,-6.08107 -0.42391,-7.30523 -0.58866,-14.61977 -0.80532,-21.93348 -0.54793,-16.17286 -1.05419,-32.34852 -1.30606,-48.52906 -0.3327,-23.37111 -0.26678,-46.74625 -0.14115,-70.118878 0.0399,-17.663495 0.14667,-35.326825 0.14528,-52.990379 -0.0322,-5.752459 -0.18674,-11.507627 -0.082,-17.258987 0,0 -3.70551,1.888054 -3.70551,1.888054 z" />
    <path
       style="fill:#000000;stroke-width:0.264583"
       id="path883"
       d="m 78.966254,14.103872 c 0.549087,1.934902 0.82595,3.934673 1.203775,5.906291 1.506844,7.863214 -0.154612,-1.398712 1.535692,8.259131 0.296666,1.982438 0.628888,3.959878 0.889997,5.947309 0.675394,5.140759 1.115224,9.89901 1.548424,15.083274 0.86193,10.315009 1.459288,20.64349 2.041207,30.977118 0.729369,14.384292 1.683158,28.756095 2.42443,43.139745 0.324181,6.29042 0.606303,12.58294 0.914916,18.87415 0.887876,14.77527 2.429412,29.50329 3.87972,44.23182 0.720601,7.16514 1.160391,14.35357 1.324994,21.55206 0.07642,3.39285 0.03783,6.78623 5.29e-4,10.17922 -0.02593,1.89232 -0.04322,3.78475 -0.058,5.67719 -0.0021,1.57421 0.0063,3.14843 -0.0037,4.72263 -0.0069,1.04249 -0.02405,2.08494 -0.02154,3.12747 0.0579,1.23872 -0.184137,2.46355 -0.447472,3.668 -0.406548,1.93955 -0.896188,3.85777 -1.459129,5.75714 0,0 3.698978,-1.75706 3.698978,-1.75706 v 0 c 0.523748,-1.91216 0.992743,-3.83866 1.432965,-5.77177 0.279037,-1.24562 0.547415,-2.49868 0.477702,-3.78313 0.0024,-1.03515 -0.0149,-2.07021 -0.02185,-3.10532 -0.0099,-1.57347 -0.0013,-3.14699 0.0013,-4.72047 -0.007,-1.87917 -0.0099,-3.75833 -0.01887,-5.63749 -0.01508,-3.37195 -0.03986,-6.74486 -0.159583,-10.11491 -0.342715,-7.12667 -1.00919,-14.23262 -1.8282,-21.31971 -1.685607,-14.62794 -3.496707,-29.25135 -4.374324,-43.9569 C 90.744623,120.41288 89.428117,99.792439 88.351506,79.158574 87.783332,68.158382 87.807504,68.554905 87.2308,57.669 86.682282,47.315148 86.134578,36.947487 84.739404,26.664494 84.086269,21.818404 83.422536,16.97292 82.664467,12.141995 c 0,0 -3.698121,1.961877 -3.698121,1.961877 z" />
    <path
       style="fill:#000000;stroke-width:0.264583"
       id="path885"
       d="m 94.95435,238.47838 c 4.317336,-0.64882 8.71784,-0.63205 13.07474,-0.72448 8.22187,-0.20101 16.41031,0.61891 24.5859,1.35823 8.17243,0.70458 16.3277,1.57836 24.50486,2.22544 7.57527,0.60973 15.1393,1.32532 22.72803,1.75174 4.76146,0.20714 9.52445,0.34144 14.28569,0.55416 2.33674,0.1173 4.67568,0.17758 7.01466,0.22669 0.73572,0.0155 1.47154,0.0238 2.20739,0.0293 0,0 3.36192,-2.44232 3.36192,-2.44232 v 0 c -0.75148,0.005 -1.50298,0.01 -2.25448,0.0103 -2.37826,-0.004 -4.75611,-0.0473 -7.13307,-0.12736 -4.82907,-0.16064 -9.65975,-0.23087 -14.48838,-0.40221 -7.62354,-0.36342 -15.22255,-1.02326 -22.82637,-1.66878 -8.18249,-0.66307 -16.34858,-1.49827 -24.52735,-2.20391 -8.14927,-0.77535 -16.31343,-1.55292 -24.51039,-1.4597 -4.23427,0.0272 -8.49208,-0.0397 -12.709733,0.37329 0,0 -3.313417,2.4996 -3.313417,2.4996 z" />
    <path
       style="fill:#000000;stroke-width:0.264583"
       id="path889"
       d="m 84.983109,24.080555 c 0.0045,0.144252 -0.0067,0.289846 0.01339,0.432757 0.07162,0.508544 0.398243,1.90429 0.478361,2.276752 0.463701,2.155682 0.91448,4.311849 1.400662,6.462805 1.298358,5.779752 2.599132,11.559799 3.665477,17.388366 0.906666,4.955757 1.759418,10.579013 2.540897,15.53904 2.141362,13.959144 3.71961,27.989384 4.901612,42.059415 0.916818,11.074 1.474587,22.17303 2.034712,33.26957 0.32414,6.33357 0.44674,12.67426 0.48095,19.01521 0.0301,3.68328 -0.0314,7.36628 -0.0545,11.04933 -0.01,2.13827 -0.0416,4.27638 -0.0469,6.41467 0.0842,2.90306 -2.4e-4,5.80394 -0.10386,8.70525 -0.0388,2.26241 -0.307856,4.51029 -0.523986,6.76001 -0.06169,1.05823 -0.387176,1.70494 0.657836,2.30704 0.18478,0.0327 0.36671,0.0955 0.55434,0.0981 1.16574,0.0163 2.39047,-0.27695 3.53545,-0.44149 1.72717,-0.24821 1.45179,-0.20236 3.27525,-0.4073 4.13979,-0.40121 8.30234,-0.44387 12.45756,-0.51272 6.27878,-0.13369 12.55714,-0.028 18.83481,0.0984 6.12592,0.1038 12.22815,0.72709 18.29308,1.56133 5.41471,0.82982 10.82183,1.71087 16.23181,2.57263 2.14058,0.3265 4.28266,0.6621 6.44326,0.82387 1.00565,0.0677 2.01419,0.0372 3.02114,0.0287 1.28507,-0.003 2.57005,-0.0148 3.85514,-0.0124 0.53757,0.002 1.07513,0.004 1.6127,0.007 0,0 3.35629,-2.43865 3.35629,-2.43865 v 0 c -0.54483,0.003 -1.08965,0.006 -1.63447,0.009 -1.2839,0.005 -2.56778,-0.003 -3.85166,0.008 -1.00009,7.9e-4 -2.0004,0.005 -3.00034,-0.0125 -2.22169,-0.0859 -4.43105,-0.35025 -6.63377,-0.6434 -5.45566,-0.7599 -10.89403,-1.6248 -16.33085,-2.50826 -6.08629,-0.83324 -12.21385,-1.43974 -18.359,-1.56792 -6.24653,-0.11571 -12.4924,-0.21571 -18.74033,-0.18055 -4.13254,0.0126 -8.26989,0.0736 -12.3903,0.41783 -2.35541,0.22696 -4.6962,0.62779 -7.05308,0.79441 -0.13818,-0.0398 -0.32903,-0.0565 -0.41647,-0.20091 -0.27925,-0.46112 0.0252,-1.15143 -0.0343,-1.63912 0.1489,-2.23137 0.33249,-4.46201 0.36135,-6.69933 0.0991,-2.92635 0.22781,-5.85168 0.22164,-8.78036 -0.002,-2.12505 -0.0279,-4.24999 -0.0301,-6.37505 -0.0116,-3.65871 -0.0631,-7.31729 -0.10151,-10.97579 -0.11998,-6.29775 -0.35259,-12.59327 -0.78464,-18.87812 -0.73482,-11.04567 -1.42701,-22.0956 -2.32604,-33.1292 -0.35173,-3.88829 -0.819996,-9.248081 -1.238037,-13.10886 C 98.512234,84.022055 97.06931,74.424811 95.633538,64.831273 92.775308,45.328847 96.07822,67.682471 93.266851,49.193356 92.365243,43.263895 91.593168,37.304553 90.223621,31.457642 89.715293,28.905659 89.742614,29.115781 89.314193,26.707664 89.075607,25.366598 88.76818,23.992047 88.700248,22.626161 c -0.0074,-0.148685 0.0089,-0.297604 0.01339,-0.446405 0,0 -3.730532,1.900802 -3.730532,1.900802 z" />
    <path
       style="fill:#000000;stroke-width:0.264583"
       id="path891"
       d="m 86.93204,23.742611 c 3.857935,-0.08071 7.717171,-0.101212 11.57578,-0.138463 9.51284,-0.134777 19.02689,-0.04179 28.53995,-0.117159 7.57116,-0.116265 15.14414,-0.110023 22.7151,-0.230826 4.54231,-0.106677 9.08394,-0.223 13.62734,-0.268874 2.59619,-0.01259 5.19251,-0.0088 7.78867,0.0097 1.21467,0.0142 2.42929,0.02297 3.64403,0.01727 1.5752,-0.0089 3.1504,-0.009 4.72562,-0.01149 1.82445,-7.94e-4 3.64885,-0.0085 5.47329,6.4e-5 1.29853,0.0022 2.59702,0.01037 3.89553,0.01771 0.78216,0.0045 1.56433,0.0058 2.3465,0.0065 0.56364,6.35e-4 1.12726,-0.0045 1.69089,-0.0055 0,0 3.35842,-2.440035 3.35842,-2.440035 v 0 c -0.55858,-0.001 -1.11715,-0.0061 -1.67574,-0.0055 -0.78809,6.35e-4 -1.57619,0.002 -2.36427,0.0065 -1.31477,0.0073 -2.62952,0.01542 -3.94431,0.01773 -1.82448,0.0084 -3.64892,10e-4 -5.47341,3.8e-5 -1.56382,-0.0026 -3.12763,-0.0026 -4.69143,-0.01307 -1.22868,-0.0073 -2.45729,-0.0015 -3.68592,0.01255 -2.64547,0.02159 -5.29093,0.0429 -7.93609,0.09164 -4.58987,0.06995 -9.17898,0.171427 -13.76556,0.365171 -7.64612,0.21678 -15.29676,0.231477 -22.94399,0.403556 -9.44297,0.09412 -18.88703,0.07025 -28.32988,-0.03166 -3.731551,-0.03701 -7.463811,-0.05648 -11.194624,-0.138464 0,0 -3.375896,2.452732 -3.375896,2.452732 z" />
    <path
       style="fill:#000000;stroke-width:0.264583"
       id="path893"
       d="m 194.11819,23.194522 c -1.56672,2.558222 -2.25663,5.527567 -3.00102,8.399002 -2.25712,9.708602 -3.19072,19.671887 -3.9993,29.587743 -0.94691,12.92207 -1.80798,25.849939 -2.50427,38.787982 -0.46367,8.899501 -1.21088,17.781581 -1.89977,26.665901 -0.55117,7.00033 -0.82034,14.01795 -0.96659,21.03706 -0.11773,5.09315 0.0365,10.18936 0.37474,15.27145 0.27793,3.63654 0.74425,7.2548 1.25431,10.86524 0.42912,3.36782 1.10032,6.69544 1.60532,10.05217 0.46139,3.39457 1.08228,6.76419 1.58041,10.15309 0.18126,1.18095 0.32899,2.38263 0.62399,3.54249 0.14308,0.52588 0.20541,1.06563 0.3478,1.59094 0,0 3.66313,-1.9892 3.66313,-1.9892 v 0 c -0.13898,-0.5228 -0.2093,-1.05956 -0.34964,-1.58264 -0.28481,-1.14045 -0.49972,-2.30147 -0.71215,-3.45696 -0.62211,-3.34834 -1.28532,-6.69025 -1.71635,-10.07073 -0.45353,-3.37555 -1.0734,-6.72326 -1.52011,-10.09997 -0.56071,-3.58303 -1.06037,-7.1787 -1.31636,-10.79815 -0.37102,-5.04381 -0.68076,-10.09939 -0.51953,-15.15959 0.106,-6.99186 0.30506,-13.98412 0.85534,-20.95741 0.65674,-8.83674 1.31346,-17.67748 1.6172,-26.534732 0.54844,-12.930536 1.37458,-25.849196 2.44996,-38.746742 0.92512,-9.99377 1.93921,-20.055326 4.53657,-29.77802 0.85592,-2.887567 1.64564,-5.949976 3.44392,-8.422765 0,0 -3.8476,1.643841 -3.8476,1.643841 z" />
    <path
       style="fill:#000000;stroke-width:0.264583"
       id="path895"
       d="m 108.91228,218.83724 c -0.7686,-1.53149 -1.21885,-3.1734 -1.56677,-4.84273 -0.19363,-1.2853 -0.4797,-2.59865 -0.36816,-3.90459 0.053,-0.12399 0.0771,-0.26491 0.15907,-0.37195 0.1923,-0.25099 1.20861,-0.77993 0.74549,-0.49596 -1.00902,0.61869 -2.06146,1.16902 -3.03959,1.83548 -0.1696,0.11556 0.39167,-0.12498 0.59234,-0.16803 0.24538,-0.0526 0.49567,-0.079 0.7435,-0.11856 1.50826,-0.15849 3.02731,-0.14963 4.54186,-0.13924 1.04829,-0.0203 1.59528,0.018 2.32092,0.80041 0.79049,0.96604 1.19529,2.11518 1.43909,3.32112 0.18847,1.12834 0.30019,2.12513 -0.18127,3.18761 -0.30485,0.42409 -0.33339,0.53424 -0.76778,0.84866 -0.16405,0.11874 -0.69878,0.40972 -0.52443,0.3067 5.23635,-3.0939 3.22896,-1.76846 1.72314,-1.27231 -1.0812,0.3097 -2.20491,0.37686 -3.32263,0.40668 -0.43266,0.008 -0.86539,0.006 -1.29808,0.004 0,0 -3.36769,2.44499 -3.36769,2.44499 v 0 c 0.43868,0.001 0.87738,0.003 1.31604,-0.004 1.14374,-0.0226 2.29185,-0.0676 3.41049,-0.33172 2.10826,-0.59214 3.08008,-1.38858 5.38173,-2.75509 0.54703,-0.32478 0.92804,-0.828 1.20447,-1.38877 0.37772,-1.1185 0.29128,-2.24587 0.0604,-3.39458 -0.27395,-1.26922 -0.72641,-2.47662 -1.5216,-3.5197 -0.76617,-0.90955 -1.33137,-1.12957 -2.53265,-1.08039 -1.53085,0.005 -3.06358,0.006 -4.59156,0.11022 -2.36398,0.22488 -2.51438,0.73816 -5.44901,2.42556 -0.45325,0.26061 -0.67782,0.7202 -0.75212,1.21569 -0.0208,1.3334 0.25271,2.65276 0.49736,3.95765 0.37201,1.69734 0.81988,3.36612 1.50682,4.96692 0,0 3.64065,-2.0447 3.64065,-2.0447 z" />
    <path
       style="fill:#000000;stroke-width:0.264583"
       id="path899"
       d="m 139.46454,215.02053 c 0.0564,-0.7434 0.20417,-1.35852 0.88903,-1.72928 -6.38039,3.82816 -3.53425,1.38533 -1.91241,1.79441 0.69404,0.20975 0.73108,0.83057 0.81413,1.46341 0.0946,0.7671 0.0228,1.50619 -0.55754,2.05188 -1.50705,0.86667 1.3342,-0.76595 3.01493,-1.78219 0.0909,-0.055 -0.19188,0.0924 -0.29206,0.1279 -0.32145,0.11387 -0.65782,0.14537 -0.99421,0.17941 -0.62319,0.0852 -1.0688,-0.0346 -1.40476,-0.57569 -0.21734,-0.48674 -0.3002,-1.0584 0.14033,-1.43193 1.43082,-0.61199 -0.0309,0.002 -3.11314,1.86952 -0.0811,0.0492 0.17403,-0.0769 0.26495,-0.10392 0.22249,-0.0662 0.36724,-0.0621 0.56216,0.0502 0.15671,0.1799 0.1869,0.40409 0.23247,0.62934 0,0 3.6812,-1.97973 3.6812,-1.97973 v 0 c -0.0775,-0.31631 -0.15268,-0.62097 -0.36526,-0.87961 -0.18878,-0.17589 -0.23685,-0.26392 -0.49447,-0.33474 -0.13361,-0.0367 -0.47334,-0.0518 -0.6026,0.0181 -3.73346,2.01972 -2.90173,1.0701 -4.00709,2.39902 -0.27606,0.6203 -0.20898,1.25593 0.0883,1.86283 0.38258,0.62857 0.88591,1.03801 1.66131,0.95302 2.07104,-0.0958 4.02669,-0.98581 5.46911,-2.6388 0.45435,-0.7164 0.50593,-1.51794 0.38928,-2.34934 -0.10653,-0.75172 -0.222,-1.55738 -1.01622,-1.86675 -1.91139,-0.89014 -4.13854,1.34782 -5.43845,2.09173 -0.55399,0.57262 -0.6928,1.30355 -0.73952,2.082 0,0 3.73053,-1.9008 3.73053,-1.9008 z" />
    <path
       style="fill:#000000;stroke-width:0.264583"
       id="path901"
       d="m 138.15653,218.11152 c 2.39251,-0.60691 4.82532,-1.01628 7.27169,-1.32917 3.23809,-0.3628 6.49905,-0.41756 9.75381,-0.4556 2.99555,-0.0667 5.98501,0.161 8.96487,0.43885 3.31108,0.35172 6.61498,0.76054 9.92624,1.11708 2.84779,0.27472 5.70005,0.52212 8.55524,0.70781 2.29099,0.15441 4.58654,0.18183 6.87669,0.34723 1.02432,0.0784 2.04872,0.15508 3.07397,0.22016 0,0 3.35066,-2.40716 3.35066,-2.40716 v 0 c -1.03925,-0.0453 -2.07792,-0.10255 -3.11525,-0.18127 -2.30993,-0.16572 -4.62421,-0.17166 -6.93615,-0.30745 -2.86046,-0.19337 -5.71957,-0.41829 -8.57488,-0.67464 -1.66872,-0.17335 -3.33968,-0.31936 -5.00439,-0.5295 -0.0446,-0.006 -3.30077,-0.44525 -3.33285,-0.44895 -0.52527,-0.0606 -1.05278,-0.0999 -1.57917,-0.14979 -2.99139,-0.30221 -5.9956,-0.54012 -9.00507,-0.46298 -3.25788,0.0383 -6.52176,0.0739 -9.76563,0.41026 -2.40031,0.27868 -4.78914,0.65269 -7.14526,1.19554 0,0 -3.31452,2.50958 -3.31452,2.50958 z" />
    <text
       xml:space="preserve"
       transform="matrix(0.26458333,0,0,0.26458333,-71.480149,-13.581227)"
       id="text3107"
       style="font-style:normal;font-weight:normal;font-size:40px;line-height:1.25;font-family:sans-serif;white-space:pre;shape-inside:url(#rect3109);fill:#000000;fill-opacity:1;stroke:none"><tspan
         x="286.37109"
         y="160.76665"
         id="tspan36752">drawing area</tspan></text>
    <text
       xml:space="preserve"
       transform="matrix(0.26458333,0,0,0.26458333,-97.927796,-0.35740076)"
       id="text17597"
       style="font-style:normal;font-weight:normal;font-size:40px;line-height:1.25;font-family:sans-serif;white-space:pre;shape-inside:url(#rect17599);fill:#000000;fill-opacity:1;stroke:none"><tspan
         x="413.3457"
         y="888.85259"
         id="tspan36754">paint size</tspan></text>
    <text
       xml:space="preserve"
       transform="matrix(0.26458333,0,0,0.26458333,-65.046932,15.010831)"
       id="text33075"
       style="font-style:normal;font-weight:normal;font-size:40px;line-height:1.25;font-family:sans-serif;white-space:pre;shape-inside:url(#rect33077);fill:#000000;fill-opacity:1;stroke:none"><tspan
         x="279.24414"
         y="766.30962"
         id="tspan36756">color picker</tspan></text>
    <path
       style="fill:#000000;stroke-width:0.264583"
       id="path36716"
       d="m 67.700355,32.010363 c 3.939106,0.899824 7.780771,2.184302 11.626395,3.413411 6.162439,1.867876 12.215637,4.062174 18.2676,6.254686 5.29048,1.897443 10.48561,4.045259 15.72726,6.070311 3.75197,1.489972 7.57997,2.775022 11.38827,4.110562 1.26967,0.434647 2.53926,0.863764 3.79508,1.337 0,0 3.41084,-2.3036 3.41084,-2.3036 v 0 c -1.30262,-0.440854 -2.61557,-0.842444 -3.92772,-1.25408 -3.85388,-1.281962 -7.70664,-2.568821 -11.50271,-4.01601 -5.27336,-2.006944 -10.50805,-4.117152 -15.82389,-6.012939 -6.036401,-2.208747 -12.099772,-4.332594 -18.218799,-6.30287 -3.766904,-1.256109 -7.532491,-2.517097 -11.331334,-3.673268 0,0 -3.410992,2.376797 -3.410992,2.376797 z" />
    <path
       style="fill:#000000;stroke-width:0.264583"
       id="path36720"
       d="m 71.136009,215.2984 c 1.842606,-0.29132 3.718518,-0.30801 5.579938,-0.3459 2.236542,-0.0418 4.473591,-0.0343 6.710418,-0.0356 1.813875,-0.0367 3.621212,0.0238 5.429351,0.16073 1.76666,0.23994 3.536672,0.39449 5.3175,0.47216 2.413315,0.18495 4.831443,0.28408 7.250084,0.36711 1.63752,0.0446 3.27526,0.0809 4.91328,0.10005 0.79418,0.008 1.58842,0.008 2.38263,0.008 0,0 3.37373,-2.45182 3.37373,-2.45182 v 0 c -0.80215,0.002 -1.60429,0.006 -2.40641,0.0115 -1.66487,0.01 -3.32999,0.0123 -4.99454,-0.0277 -2.41132,-0.06 -4.820768,-0.16373 -7.223897,-0.37896 -1.768829,-0.0774 -3.530658,-0.22014 -5.282829,-0.48211 -1.823373,-0.13025 -3.644315,-0.22706 -5.473607,-0.16616 -2.247686,0.003 -4.495279,0.0188 -6.742766,0.0496 -1.829298,0.0357 -3.664249,0.0321 -5.487194,0.20298 0,0 -3.345688,2.51624 -3.345688,2.51624 z" />
    <path
       style="fill:#000000;stroke-width:0.264583"
       id="path36724"
       d="m 63.817182,234.55195 c 2.35926,-0.43698 4.765865,-0.53115 7.158392,-0.62254 3.294525,-0.10997 6.589871,-0.11983 9.884227,-0.0128 3.867721,0.16727 7.723402,0.51671 11.588324,0.73293 4.25424,0.21127 8.509965,0.37231 12.767985,0.48063 4.7845,0.1157 9.54091,-0.35282 14.25133,-1.14944 3.36553,-0.65832 6.74398,-1.2622 10.04675,-2.19517 2.04069,-0.65339 4.05587,-1.39988 6.05241,-2.17955 2.06433,-0.83403 4.06367,-1.81472 6.07664,-2.76278 1.82327,-0.87427 3.74449,-1.50899 5.61818,-2.26132 1.56836,-0.56355 3.1062,-1.19364 4.62751,-1.87334 0.94284,-0.43198 1.89567,-0.82676 2.87685,-1.16093 0.58952,-0.19698 1.15538,-0.43623 1.70357,-0.72835 1.85471,-0.96673 3.67279,-2.0074 5.36357,-3.23156 0.28854,-0.25012 0.61851,-0.44273 0.93164,-0.65949 0,0 -3.87603,1.52323 -3.87603,1.52323 v 0 c -0.31612,0.2164 -0.62882,0.43717 -0.9357,0.6666 -0.28834,0.19881 -0.57242,0.40252 -0.8685,0.58983 -0.10669,0.0675 -0.43174,0.26184 -0.32199,0.19943 2.51641,-1.43094 4.40841,-2.54632 2.96889,-1.69879 -0.56079,0.26647 -1.07822,0.61144 -1.68704,0.76817 -0.96575,0.41503 -2.00237,0.67507 -2.9363,1.17821 -1.52205,0.69151 -3.0472,1.36736 -4.63465,1.89791 -1.88044,0.77814 -3.81499,1.41651 -5.66367,2.271 -2.01288,0.93664 -3.99821,1.93526 -6.05405,2.77717 -1.99753,0.79443 -4.0233,1.52814 -6.05453,2.22689 -3.32786,1.01765 -6.7509,1.64392 -10.15735,2.33634 -4.68849,0.82866 -9.42619,1.33465 -14.19598,1.20216 -4.24394,-0.0951 -8.482886,-0.28684 -12.722289,-0.499 -3.861387,-0.20377 -7.712231,-0.54873 -11.57352,-0.75431 -3.282627,-0.10435 -6.565022,-0.14847 -9.84884,-0.046 -2.361607,0.076 -4.725278,0.17777 -7.071307,0.47522 0,0 -3.314522,2.50957 -3.314522,2.50957 z" />
  </g>
</svg>
